# xmcd
#
# Track frame offsets: 
#        300
#        5368
#        24278
#        44863
#        69618
#        87363
#        107703
#        128937
#        151898
#        165233
#        184624
#        209389
#        244877
#
# Disc length: 3551 seconds
#
# Revision: 4
# Processed by: cddbd v1.5.2PL0 Copyright (c) Steve Scherf et al.
# Submitted via: ExactAudioCopy v1.0b1
#
DISCID=a90ddb0d
DTITLE=Otis Rush - So Many Roads- Live In Concert
DYEAR=1995
DGENRE=Chicago Blues
TTITLE0=Introduction
TTITLE1=Will My Woman Be Home Tonight (Blue Guitar)
TTITLE2=Everyday I Have The Blues
TTITLE3=I Can't Quit You Baby
TTITLE4=Crosscut Saw
TTITLE5=Looking Back (Take A Look Behind)
TTITLE6=Chitlins Con Carne
TTITLE7=I've Got News For You
TTITLE8=Mean Old World
TTITLE9=All Your Love (I Miss Loving)
TTITLE10=So Many Roads
TTITLE11=Gambler's Blues
TTITLE12=Three Times A Fool
EXTD=
EXTT0=
EXTT1=
EXTT2=
EXTT3=
EXTT4=
EXTT5=
EXTT6=
EXTT7=
EXTT8=
EXTT9=
EXTT10=
EXTT11=
EXTT12=
PLAYORDER=
